<?xml version="1.0" encoding="UTF-8" standalone="no"?>
<svg
   id="Layer_1"
   version="1.1"
   viewBox="0 0 1500 500.00004"
   width="1500"
   height="500.00003"
   sodipodi:docname="ep2025-mastodon-cover-1500x500px-safe-area-template.svg"
   inkscape:version="1.4 (1:1.4+202410161351+e7c3feb100)"
   xml:space="preserve"
   inkscape:export-filename="ep2025-twitter-header-6250x2083-400dpi"
   inkscape:export-xdpi="400"
   inkscape:export-ydpi="400"
   xmlns:inkscape="http://www.inkscape.org/namespaces/inkscape"
   xmlns:sodipodi="http://sodipodi.sourceforge.net/DTD/sodipodi-0.dtd"
   xmlns="http://www.w3.org/2000/svg"
   xmlns:svg="http://www.w3.org/2000/svg"><sodipodi:namedview
     id="namedview1"
     pagecolor="#ffffff"
     bordercolor="#666666"
     borderopacity="1.0"
     inkscape:showpageshadow="2"
     inkscape:pageopacity="0.0"
     inkscape:pagecheckerboard="0"
     inkscape:deskcolor="#d1d1d1"
     inkscape:zoom="0.38774776"
     inkscape:cx="983.88705"
     inkscape:cy="584.14264"
     inkscape:window-width="1920"
     inkscape:window-height="1043"
     inkscape:window-x="0"
     inkscape:window-y="0"
     inkscape:window-maximized="1"
     inkscape:current-layer="g1"
     showguides="true"><sodipodi:guide
       position="235.33341,177.00003"
       orientation="0,1"
       id="guide1"
       inkscape:locked="false"
       inkscape:label=""
       inkscape:color="rgb(0,134,229)" /><sodipodi:guide
       position="274,162.5153"
       orientation="-1,0"
       id="guide6"
       inkscape:locked="false"
       inkscape:label=""
       inkscape:color="rgb(0,134,229)" /></sodipodi:namedview><!-- Generator: Adobe Illustrator 29.1.0, SVG Export Plug-In . SVG Version: 2.1.0 Build 142)  --><defs
     id="defs1"><style
       id="style1">
      .st0 {
        fill: #151f38;
      }

      .st1 {
        fill: #f5e5d6;
      }

      .st2 {
        fill: #ee714b;
      }
    </style><clipPath
       id="clippath-3"><path
         class="st0"
         d="m 247.14,7.31 c -19.79,0.09 -38.7,1.78 -55.33,4.72 -49,8.66 -57.89,26.77 -57.89,60.19 v 44.13 h 115.79 v 14.71 H 90.46 c -33.65,0 -63.12,20.23 -72.33,58.7 -10.63,44.1 -11.1,71.63 0,117.68 8.23,34.28 27.89,58.7 61.54,58.7 h 39.81 v -52.9 c 0,-38.22 33.07,-71.93 72.33,-71.93 h 115.65 c 32.19,0 57.89,-26.51 57.89,-58.84 V 72.21 C 365.35,40.83 338.88,17.26 307.46,12.02 287.57,8.71 266.93,7.2 247.14,7.3 Z"
         id="path4" /></clipPath><clipPath
       id="clippath-4"><circle
         class="st0"
         cx="301.76001"
         cy="177.03"
         r="45.619999"
         id="circle4" /></clipPath><clipPath
       id="clippath-5"><path
         class="st0"
         d="m 197.43,153.58 h 0.96 c 11.28,0 20.42,9.14 20.42,20.42 v 45.12 H 176.98 V 174 c 0,-11.28 9.15,-20.42 20.42,-20.42 h 0.02 z"
         id="path5" /></clipPath><clipPath
       id="clippath"><path
         class="st0"
         d="m 379.8,131.1 v 51.42 c 0,39.86 -33.8,73.41 -72.33,73.41 H 191.82 c -31.68,0 -57.89,27.11 -57.89,58.84 v 110.26 c 0,31.38 27.29,49.84 57.89,58.84 36.65,10.78 71.8,12.72 115.65,0 29.15,-8.44 57.89,-25.43 57.89,-58.84 V 380.9 H 249.71 v -14.71 h 173.55 c 33.65,0 46.19,-23.47 57.89,-58.7 12.09,-36.27 11.57,-71.15 0,-117.68 -8.32,-33.5 -24.2,-58.7 -57.89,-58.7 h -43.45 z"
         id="path1-9" /></clipPath><clipPath
       id="clippath-1"><path
         class="st0"
         d="m 161.4,346.62 c 2.94,3.23 15.21,15.96 34.44,16.82 21.84,0.97 36.1,-14.12 38.57,-16.82 v 137.22 c -3,0.07 -7.82,0.06 -13.7,-0.48 -20.68,-1.9 -36.13,-9.3 -44.72,-13.46 -3.45,-1.67 -8.34,-4.19 -14.02,-7.68 -0.19,-38.54 -0.37,-77.07 -0.56,-115.61 z"
         id="path2-4" /></clipPath><clipPath
       id="clippath-2"><path
         class="st0"
         d="m 197.3,401.54 h 1.23 c 14.42,0 26.11,11.69 26.11,26.11 v 57.68 h -53.48 v -57.68 c 0,-14.42 11.69,-26.11 26.11,-26.11 z"
         id="path3" /></clipPath><clipPath
       id="clippath-46"><path
         class="st0"
         d="m 379.8,131.1 v 51.42 c 0,39.86 -33.8,73.41 -72.33,73.41 H 191.82 c -31.68,0 -57.89,27.11 -57.89,58.84 v 110.26 c 0,31.38 27.29,49.84 57.89,58.84 36.65,10.78 71.8,12.72 115.65,0 29.15,-8.44 57.89,-25.43 57.89,-58.84 V 380.9 H 249.71 v -14.71 h 173.55 c 33.65,0 46.19,-23.47 57.89,-58.7 12.09,-36.27 11.57,-71.15 0,-117.68 -8.32,-33.5 -24.2,-58.7 -57.89,-58.7 h -43.45 z"
         id="path1-9-4" /></clipPath><clipPath
       id="clippath-1-9"><path
         class="st0"
         d="m 161.4,346.62 c 2.94,3.23 15.21,15.96 34.44,16.82 21.84,0.97 36.1,-14.12 38.57,-16.82 v 137.22 c -3,0.07 -7.82,0.06 -13.7,-0.48 -20.68,-1.9 -36.13,-9.3 -44.72,-13.46 -3.45,-1.67 -8.34,-4.19 -14.02,-7.68 -0.19,-38.54 -0.37,-77.07 -0.56,-115.61 z"
         id="path2-4-8" /></clipPath><clipPath
       id="clippath-2-4"><path
         class="st0"
         d="m 197.3,401.54 h 1.23 c 14.42,0 26.11,11.69 26.11,26.11 v 57.68 h -53.48 v -57.68 c 0,-14.42 11.69,-26.11 26.11,-26.11 z"
         id="path3-2" /></clipPath><clipPath
       id="clippath-3-5"><path
         class="st0"
         d="m 247.14,7.31 c -19.79,0.09 -38.7,1.78 -55.33,4.72 -49,8.66 -57.89,26.77 -57.89,60.19 v 44.13 h 115.79 v 14.71 H 90.46 c -33.65,0 -63.12,20.23 -72.33,58.7 -10.63,44.1 -11.1,71.63 0,117.68 8.23,34.28 27.89,58.7 61.54,58.7 h 39.81 v -52.9 c 0,-38.22 33.07,-71.93 72.33,-71.93 h 115.65 c 32.19,0 57.89,-26.51 57.89,-58.84 V 72.21 C 365.35,40.83 338.88,17.26 307.46,12.02 287.57,8.71 266.93,7.2 247.14,7.3 Z"
         id="path4-7" /></clipPath><clipPath
       id="clippath-4-2"><circle
         class="st0"
         cx="301.76001"
         cy="177.03"
         r="45.619999"
         id="circle4-7" /></clipPath><clipPath
       id="clippath-5-4"><path
         class="st0"
         d="m 197.43,153.58 h 0.96 c 11.28,0 20.42,9.14 20.42,20.42 v 45.12 H 176.98 V 174 c 0,-11.28 9.15,-20.42 20.42,-20.42 h 0.02 z"
         id="path5-4" /></clipPath><clipPath
       id="clippath-46-9"><path
         class="st0"
         d="m 379.8,131.1 v 51.42 c 0,39.86 -33.8,73.41 -72.33,73.41 H 191.82 c -31.68,0 -57.89,27.11 -57.89,58.84 v 110.26 c 0,31.38 27.29,49.84 57.89,58.84 36.65,10.78 71.8,12.72 115.65,0 29.15,-8.44 57.89,-25.43 57.89,-58.84 V 380.9 H 249.71 v -14.71 h 173.55 c 33.65,0 46.19,-23.47 57.89,-58.7 12.09,-36.27 11.57,-71.15 0,-117.68 -8.32,-33.5 -24.2,-58.7 -57.89,-58.7 h -43.45 z"
         id="path1-9-4-7" /></clipPath><clipPath
       id="clippath-1-9-6"><path
         class="st0"
         d="m 161.4,346.62 c 2.94,3.23 15.21,15.96 34.44,16.82 21.84,0.97 36.1,-14.12 38.57,-16.82 v 137.22 c -3,0.07 -7.82,0.06 -13.7,-0.48 -20.68,-1.9 -36.13,-9.3 -44.72,-13.46 -3.45,-1.67 -8.34,-4.19 -14.02,-7.68 -0.19,-38.54 -0.37,-77.07 -0.56,-115.61 z"
         id="path2-4-8-8" /></clipPath><clipPath
       id="clippath-2-4-2"><path
         class="st0"
         d="m 197.3,401.54 h 1.23 c 14.42,0 26.11,11.69 26.11,26.11 v 57.68 h -53.48 v -57.68 c 0,-14.42 11.69,-26.11 26.11,-26.11 z"
         id="path3-2-0" /></clipPath><clipPath
       id="clippath-3-5-6"><path
         class="st0"
         d="m 247.14,7.31 c -19.79,0.09 -38.7,1.78 -55.33,4.72 -49,8.66 -57.89,26.77 -57.89,60.19 v 44.13 h 115.79 v 14.71 H 90.46 c -33.65,0 -63.12,20.23 -72.33,58.7 -10.63,44.1 -11.1,71.63 0,117.68 8.23,34.28 27.89,58.7 61.54,58.7 h 39.81 v -52.9 c 0,-38.22 33.07,-71.93 72.33,-71.93 h 115.65 c 32.19,0 57.89,-26.51 57.89,-58.84 V 72.21 C 365.35,40.83 338.88,17.26 307.46,12.02 287.57,8.71 266.93,7.2 247.14,7.3 Z"
         id="path4-7-4" /></clipPath><clipPath
       id="clippath-4-2-3"><circle
         class="st0"
         cx="301.76001"
         cy="177.03"
         r="45.619999"
         id="circle4-7-3" /></clipPath><clipPath
       id="clippath-5-4-6"><path
         class="st0"
         d="m 197.43,153.58 h 0.96 c 11.28,0 20.42,9.14 20.42,20.42 v 45.12 H 176.98 V 174 c 0,-11.28 9.15,-20.42 20.42,-20.42 h 0.02 z"
         id="path5-4-9" /></clipPath><clipPath
       id="clippath-1-9-3"><path
         class="st0"
         d="m 161.4,346.62 c 2.94,3.23 15.21,15.96 34.44,16.82 21.84,0.97 36.1,-14.12 38.57,-16.82 v 137.22 c -3,0.07 -7.82,0.06 -13.7,-0.48 -20.68,-1.9 -36.13,-9.3 -44.72,-13.46 -3.45,-1.67 -8.34,-4.19 -14.02,-7.68 -0.19,-38.54 -0.37,-77.07 -0.56,-115.61 z"
         id="path2-4-8-0" /></clipPath><clipPath
       id="clippath-2-4-20"><path
         class="st0"
         d="m 197.3,401.54 h 1.23 c 14.42,0 26.11,11.69 26.11,26.11 v 57.68 h -53.48 v -57.68 c 0,-14.42 11.69,-26.11 26.11,-26.11 z"
         id="path3-2-7" /></clipPath><clipPath
       id="clippath-4-2-30"><circle
         class="st0"
         cx="301.76001"
         cy="177.03"
         r="45.619999"
         id="circle4-7-1" /></clipPath><clipPath
       id="clippath-5-4-67"><path
         class="st0"
         d="m 197.43,153.58 h 0.96 c 11.28,0 20.42,9.14 20.42,20.42 v 45.12 H 176.98 V 174 c 0,-11.28 9.15,-20.42 20.42,-20.42 h 0.02 z"
         id="path5-4-5" /></clipPath><clipPath
       clipPathUnits="userSpaceOnUse"
       id="clipPath572"><path
         class="st0"
         d="m 247.13997,7.3099994 c -19.78997,0.09 -38.69998,1.7800011 -55.32996,4.7200036 -49.00004,8.659996 -57.89003,26.769994 -57.89003,60.189994 V 116.35 h 115.79 v 14.71 H 90.459982 c -33.649974,0 -63.11997,20.23 -72.329995,58.7 -10.6299599,44.1 -11.0999589,71.63 0,117.68 8.230033,34.28 27.890001,58.7 61.539975,58.7 h 39.810058 v -52.9 c 0,-38.22 33.07001,-71.93 72.32999,-71.93 h 115.64997 c 32.19005,0 57.89003,-26.51 57.89003,-58.84 V 72.210002 c 0,-31.38 -26.46998,-54.950002 -57.89003,-60.190002 -19.89,-3.3099982 -40.52996,-4.8199983 -60.32001,-4.7200033 z"
         id="path572"
         style="stroke-width:0.999998" /></clipPath><clipPath
       clipPathUnits="userSpaceOnUse"
       id="clipPath573"><path
         class="st0"
         d="m 2785.5236,-734.98186 c -24.4933,0.11139 -47.8975,2.20304 -68.4798,5.84177 -60.6455,10.71815 -71.6483,33.13221 -71.6483,74.49488 v 54.61804 h 143.3089 v 18.20601 h -197.0977 c -41.6473,0 -78.1212,25.0379 -89.5201,72.65077 -13.1563,54.5809 -13.738,88.65374 0,145.64809 10.186,42.42706 34.5184,72.65077 76.1657,72.65077 h 49.2714 v -65.47233 c 0,-47.30345 40.9295,-89.02504 89.5201,-89.02504 h 143.1356 c 39.8404,0 71.6483,-32.81043 71.6483,-72.82405 v -136.46463 c 0,-38.83784 -32.7609,-68.00954 -71.6483,-74.49489 -24.6171,-4.09666 -50.1624,-5.96553 -74.6558,-5.84177 z"
         id="path573"
         style="stroke-width:1" /></clipPath><clipPath
       clipPathUnits="userSpaceOnUse"
       id="clipPath574"><path
         class="st0"
         d="m 247.13997,7.3099994 c -19.78997,0.09 -38.69998,1.7800011 -55.32996,4.7200036 -49.00004,8.659996 -57.89003,26.769994 -57.89003,60.189994 V 116.35 h 115.79 v 14.71 H 90.459982 c -33.649974,0 -63.11997,20.23 -72.329995,58.7 -10.6299599,44.1 -11.0999589,71.63 0,117.68 8.230033,34.28 27.890001,58.7 61.539975,58.7 h 39.810058 v -52.9 c 0,-38.22 33.07001,-71.93 72.32999,-71.93 h 115.64997 c 32.19005,0 57.89003,-26.51 57.89003,-58.84 V 72.210002 c 0,-31.38 -26.46998,-54.950002 -57.89003,-60.190002 -19.89,-3.3099982 -40.52996,-4.8199983 -60.32001,-4.7200033 z"
         id="path574"
         style="stroke-width:0.999998" /></clipPath><clipPath
       clipPathUnits="userSpaceOnUse"
       id="clipPath575"><path
         class="st0"
         d="m 247.13997,7.3099994 c -19.78997,0.09 -38.69998,1.7800011 -55.32996,4.7200036 -49.00004,8.659996 -57.89003,26.769994 -57.89003,60.189994 V 116.35 h 115.79 v 14.71 H 90.459982 c -33.649974,0 -63.11997,20.23 -72.329995,58.7 -10.6299599,44.1 -11.0999589,71.63 0,117.68 8.230033,34.28 27.890001,58.7 61.539975,58.7 h 39.810058 v -52.9 c 0,-38.22 33.07001,-71.93 72.32999,-71.93 h 115.64997 c 32.19005,0 57.89003,-26.51 57.89003,-58.84 V 72.210002 c 0,-31.38 -26.46998,-54.950002 -57.89003,-60.190002 -19.89,-3.3099982 -40.52996,-4.8199983 -60.32001,-4.7200033 z"
         id="path575"
         style="stroke-width:0.999998" /></clipPath><clipPath
       clipPathUnits="userSpaceOnUse"
       id="clipPath576"><path
         class="st0"
         d="m 247.13997,7.3099994 c -19.78997,0.09 -38.69998,1.7800011 -55.32996,4.7200036 -49.00004,8.659996 -57.89003,26.769994 -57.89003,60.189994 V 116.35 h 115.79 v 14.71 H 90.459982 c -33.649974,0 -63.11997,20.23 -72.329995,58.7 -10.6299599,44.1 -11.0999589,71.63 0,117.68 8.230033,34.28 27.890001,58.7 61.539975,58.7 h 39.810058 v -52.9 c 0,-38.22 33.07001,-71.93 72.32999,-71.93 h 115.64997 c 32.19005,0 57.89003,-26.51 57.89003,-58.84 V 72.210002 c 0,-31.38 -26.46998,-54.950002 -57.89003,-60.190002 -19.89,-3.3099982 -40.52996,-4.8199983 -60.32001,-4.7200033 z"
         id="path576"
         style="stroke-width:0.999998" /></clipPath><clipPath
       clipPathUnits="userSpaceOnUse"
       id="clipPath577"><path
         class="st0"
         d="m 2785.5236,-734.98186 c -24.4933,0.11139 -47.8975,2.20304 -68.4798,5.84177 -60.6455,10.71815 -71.6483,33.13221 -71.6483,74.49488 v 54.61804 h 143.3089 v 18.20601 h -197.0977 c -41.6473,0 -78.1212,25.0379 -89.5201,72.65077 -13.1563,54.5809 -13.738,88.65374 0,145.64809 10.186,42.42706 34.5184,72.65077 76.1657,72.65077 h 49.2714 v -65.47233 c 0,-47.30345 40.9295,-89.02504 89.5201,-89.02504 h 143.1356 c 39.8404,0 71.6483,-32.81043 71.6483,-72.82405 v -136.46463 c 0,-38.83784 -32.7609,-68.00954 -71.6483,-74.49489 -24.6171,-4.09666 -50.1624,-5.96553 -74.6558,-5.84177 z"
         id="path577"
         style="stroke-width:1" /></clipPath><clipPath
       clipPathUnits="userSpaceOnUse"
       id="clipPath578"><path
         class="st0"
         d="m 247.13997,7.3099994 c -19.78997,0.09 -38.69998,1.7800011 -55.32996,4.7200036 -49.00004,8.659996 -57.89003,26.769994 -57.89003,60.189994 V 116.35 h 115.79 v 14.71 H 90.459982 c -33.649974,0 -63.11997,20.23 -72.329995,58.7 -10.6299599,44.1 -11.0999589,71.63 0,117.68 8.230033,34.28 27.890001,58.7 61.539975,58.7 h 39.810058 v -52.9 c 0,-38.22 33.07001,-71.93 72.32999,-71.93 h 115.64997 c 32.19005,0 57.89003,-26.51 57.89003,-58.84 V 72.210002 c 0,-31.38 -26.46998,-54.950002 -57.89003,-60.190002 -19.89,-3.3099982 -40.52996,-4.8199983 -60.32001,-4.7200033 z"
         id="path578"
         style="stroke-width:0.999998" /></clipPath><clipPath
       clipPathUnits="userSpaceOnUse"
       id="clipPath579"><path
         class="st0"
         d="m 247.13997,7.3099994 c -19.78997,0.09 -38.69998,1.7800011 -55.32996,4.7200036 -49.00004,8.659996 -57.89003,26.769994 -57.89003,60.189994 V 116.35 h 115.79 v 14.71 H 90.459982 c -33.649974,0 -63.11997,20.23 -72.329995,58.7 -10.6299599,44.1 -11.0999589,71.63 0,117.68 8.230033,34.28 27.890001,58.7 61.539975,58.7 h 39.810058 v -52.9 c 0,-38.22 33.07001,-71.93 72.32999,-71.93 h 115.64997 c 32.19005,0 57.89003,-26.51 57.89003,-58.84 V 72.210002 c 0,-31.38 -26.46998,-54.950002 -57.89003,-60.190002 -19.89,-3.3099982 -40.52996,-4.8199983 -60.32001,-4.7200033 z"
         id="path579"
         style="stroke-width:0.999998" /></clipPath><clipPath
       clipPathUnits="userSpaceOnUse"
       id="clipPath580"><path
         class="st0"
         d="m 247.13997,7.3099994 c -19.78997,0.09 -38.69998,1.7800011 -55.32996,4.7200036 -49.00004,8.659996 -57.89003,26.769994 -57.89003,60.189994 V 116.35 h 115.79 v 14.71 H 90.459982 c -33.649974,0 -63.11997,20.23 -72.329995,58.7 -10.6299599,44.1 -11.0999589,71.63 0,117.68 8.230033,34.28 27.890001,58.7 61.539975,58.7 h 39.810058 v -52.9 c 0,-38.22 33.07001,-71.93 72.32999,-71.93 h 115.64997 c 32.19005,0 57.89003,-26.51 57.89003,-58.84 V 72.210002 c 0,-31.38 -26.46998,-54.950002 -57.89003,-60.190002 -19.89,-3.3099982 -40.52996,-4.8199983 -60.32001,-4.7200033 z"
         id="path580"
         style="stroke-width:0.999998" /></clipPath><clipPath
       clipPathUnits="userSpaceOnUse"
       id="clipPath581"><path
         class="st0"
         d="m 247.13997,7.3099994 c -19.78997,0.09 -38.69998,1.7800011 -55.32996,4.7200036 -49.00004,8.659996 -57.89003,26.769994 -57.89003,60.189994 V 116.35 h 115.79 v 14.71 H 90.459982 c -33.649974,0 -63.11997,20.23 -72.329995,58.7 -10.6299599,44.1 -11.0999589,71.63 0,117.68 8.230033,34.28 27.890001,58.7 61.539975,58.7 h 39.810058 v -52.9 c 0,-38.22 33.07001,-71.93 72.32999,-71.93 h 115.64997 c 32.19005,0 57.89003,-26.51 57.89003,-58.84 V 72.210002 c 0,-31.38 -26.46998,-54.950002 -57.89003,-60.190002 -19.89,-3.3099982 -40.52996,-4.8199983 -60.32001,-4.7200033 z"
         id="path581"
         style="stroke-width:0.999998" /></clipPath><clipPath
       clipPathUnits="userSpaceOnUse"
       id="clipPath582"><path
         class="st0"
         d="m 247.13997,7.3099994 c -19.78997,0.09 -38.69998,1.7800011 -55.32996,4.7200036 -49.00004,8.659996 -57.89003,26.769994 -57.89003,60.189994 V 116.35 h 115.79 v 14.71 H 90.459982 c -33.649974,0 -63.11997,20.23 -72.329995,58.7 -10.6299599,44.1 -11.0999589,71.63 0,117.68 8.230033,34.28 27.890001,58.7 61.539975,58.7 h 39.810058 v -52.9 c 0,-38.22 33.07001,-71.93 72.32999,-71.93 h 115.64997 c 32.19005,0 57.89003,-26.51 57.89003,-58.84 V 72.210002 c 0,-31.38 -26.46998,-54.950002 -57.89003,-60.190002 -19.89,-3.3099982 -40.52996,-4.8199983 -60.32001,-4.7200033 z"
         id="path582"
         style="stroke-width:0.999998" /></clipPath><clipPath
       clipPathUnits="userSpaceOnUse"
       id="clipPath583"><path
         class="st0"
         d="m 2785.5236,-734.98186 c -24.4933,0.11139 -47.8975,2.20304 -68.4798,5.84177 -60.6455,10.71815 -71.6483,33.13221 -71.6483,74.49488 v 54.61804 h 143.3089 v 18.20601 h -197.0977 c -41.6473,0 -78.1212,25.0379 -89.5201,72.65077 -13.1563,54.5809 -13.738,88.65374 0,145.64809 10.186,42.42706 34.5184,72.65077 76.1657,72.65077 h 49.2714 v -65.47233 c 0,-47.30345 40.9295,-89.02504 89.5201,-89.02504 h 143.1356 c 39.8404,0 71.6483,-32.81043 71.6483,-72.82405 v -136.46463 c 0,-38.83784 -32.7609,-68.00954 -71.6483,-74.49489 -24.6171,-4.09666 -50.1624,-5.96553 -74.6558,-5.84177 z"
         id="path583"
         style="stroke-width:1" /></clipPath><clipPath
       clipPathUnits="userSpaceOnUse"
       id="clipPath584"><path
         class="st0"
         d="m 379.8,131.1 v 51.42 c 0,39.86 -33.80002,73.41 -72.33,73.41 H 191.82003 c -31.68005,0 -57.89003,27.11 -57.89003,58.84 v 110.26 c 0,31.38 27.29,49.84 57.89003,58.84 36.64998,10.78 71.79996,12.72 115.64997,0 29.14996,-8.44 57.89003,-25.43 57.89003,-58.84 V 380.9 H 249.70998 V 366.19 H 423.26 c 33.64997,0 46.18998,-23.47 57.89003,-58.7 12.08997,-36.27 11.56995,-71.15 0,-117.68 -8.32004,-33.5 -24.20006,-58.7 -57.89003,-58.7 h -43.44998 z"
         id="path584"
         style="stroke-width:0.999998" /></clipPath><clipPath
       clipPathUnits="userSpaceOnUse"
       id="clipPath585"><path
         class="st0"
         d="m 379.8,131.1 v 51.42 c 0,39.86 -33.80002,73.41 -72.33,73.41 H 191.82003 c -31.68005,0 -57.89003,27.11 -57.89003,58.84 v 110.26 c 0,31.38 27.29,49.84 57.89003,58.84 36.64998,10.78 71.79996,12.72 115.64997,0 29.14996,-8.44 57.89003,-25.43 57.89003,-58.84 V 380.9 H 249.70998 V 366.19 H 423.26 c 33.64997,0 46.18998,-23.47 57.89003,-58.7 12.08997,-36.27 11.56995,-71.15 0,-117.68 -8.32004,-33.5 -24.20006,-58.7 -57.89003,-58.7 h -43.44998 z"
         id="path585"
         style="stroke-width:0.999998" /></clipPath><clipPath
       clipPathUnits="userSpaceOnUse"
       id="clipPath586"><path
         class="st0"
         d="m 379.8,131.1 v 51.42 c 0,39.86 -33.80002,73.41 -72.33,73.41 H 191.82003 c -31.68005,0 -57.89003,27.11 -57.89003,58.84 v 110.26 c 0,31.38 27.29,49.84 57.89003,58.84 36.64998,10.78 71.79996,12.72 115.64997,0 29.14996,-8.44 57.89003,-25.43 57.89003,-58.84 V 380.9 H 249.70998 V 366.19 H 423.26 c 33.64997,0 46.18998,-23.47 57.89003,-58.7 12.08997,-36.27 11.56995,-71.15 0,-117.68 -8.32004,-33.5 -24.20006,-58.7 -57.89003,-58.7 h -43.44998 z"
         id="path586"
         style="stroke-width:0.999998" /></clipPath><clipPath
       clipPathUnits="userSpaceOnUse"
       id="clipPath587"><path
         class="st0"
         d="m 379.8,131.1 v 51.42 c 0,39.86 -33.80002,73.41 -72.33,73.41 H 191.82003 c -31.68005,0 -57.89003,27.11 -57.89003,58.84 v 110.26 c 0,31.38 27.29,49.84 57.89003,58.84 36.64998,10.78 71.79996,12.72 115.64997,0 29.14996,-8.44 57.89003,-25.43 57.89003,-58.84 V 380.9 H 249.70998 V 366.19 H 423.26 c 33.64997,0 46.18998,-23.47 57.89003,-58.7 12.08997,-36.27 11.56995,-71.15 0,-117.68 -8.32004,-33.5 -24.20006,-58.7 -57.89003,-58.7 h -43.44998 z"
         id="path587"
         style="stroke-width:0.999998" /></clipPath><clipPath
       clipPathUnits="userSpaceOnUse"
       id="clipPath588"><path
         class="st0"
         d="m 379.8,131.1 v 51.42 c 0,39.86 -33.80002,73.41 -72.33,73.41 H 191.82003 c -31.68005,0 -57.89003,27.11 -57.89003,58.84 v 110.26 c 0,31.38 27.29,49.84 57.89003,58.84 36.64998,10.78 71.79996,12.72 115.64997,0 29.14996,-8.44 57.89003,-25.43 57.89003,-58.84 V 380.9 H 249.70998 V 366.19 H 423.26 c 33.64997,0 46.18998,-23.47 57.89003,-58.7 12.08997,-36.27 11.56995,-71.15 0,-117.68 -8.32004,-33.5 -24.20006,-58.7 -57.89003,-58.7 h -43.44998 z"
         id="path588"
         style="stroke-width:0.999998" /></clipPath><clipPath
       clipPathUnits="userSpaceOnUse"
       id="clipPath589"><path
         class="st0"
         d="m 379.8,131.1 v 51.42 c 0,39.86 -33.80002,73.41 -72.33,73.41 H 191.82003 c -31.68005,0 -57.89003,27.11 -57.89003,58.84 v 110.26 c 0,31.38 27.29,49.84 57.89003,58.84 36.64998,10.78 71.79996,12.72 115.64997,0 29.14996,-8.44 57.89003,-25.43 57.89003,-58.84 V 380.9 H 249.70998 V 366.19 H 423.26 c 33.64997,0 46.18998,-23.47 57.89003,-58.7 12.08997,-36.27 11.56995,-71.15 0,-117.68 -8.32004,-33.5 -24.20006,-58.7 -57.89003,-58.7 h -43.44998 z"
         id="path589"
         style="stroke-width:0.999998" /></clipPath><clipPath
       clipPathUnits="userSpaceOnUse"
       id="clipPath590"><path
         class="st0"
         d="m 379.8,131.1 v 51.42 c 0,39.86 -33.80002,73.41 -72.33,73.41 H 191.82003 c -31.68005,0 -57.89003,27.11 -57.89003,58.84 v 110.26 c 0,31.38 27.29,49.84 57.89003,58.84 36.64998,10.78 71.79996,12.72 115.64997,0 29.14996,-8.44 57.89003,-25.43 57.89003,-58.84 V 380.9 H 249.70998 V 366.19 H 423.26 c 33.64997,0 46.18998,-23.47 57.89003,-58.7 12.08997,-36.27 11.56995,-71.15 0,-117.68 -8.32004,-33.5 -24.20006,-58.7 -57.89003,-58.7 h -43.44998 z"
         id="path590"
         style="stroke-width:0.999998" /></clipPath><clipPath
       clipPathUnits="userSpaceOnUse"
       id="clipPath591"><path
         class="st0"
         d="m 2949.7119,-581.77166 v 63.64059 c 0,49.33322 -41.833,90.85679 -89.5201,90.85679 h -143.1356 c -39.2092,0 -71.6483,33.55302 -71.6483,72.82404 v 136.46463 c 0,38.83784 33.7758,61.68509 71.6483,72.82405 45.3603,13.342 88.8641,15.74306 143.1356,0 36.0778,-10.44587 71.6483,-31.47375 71.6483,-72.82405 v -54.61803 h -143.1357 v -18.20601 h 214.7963 c 41.6473,0 57.1676,-29.04793 71.6483,-72.65077 14.9633,-44.89001 14.3197,-88.05967 0,-145.64809 -10.2974,-41.46168 -29.9515,-72.65077 -71.6483,-72.65077 h -53.7764 z"
         id="path591"
         style="stroke-width:1" /></clipPath><clipPath
       clipPathUnits="userSpaceOnUse"
       id="clipPath592"><path
         class="st0"
         d="m 379.8,131.1 v 51.42 c 0,39.86 -33.80002,73.41 -72.33,73.41 H 191.82003 c -31.68005,0 -57.89003,27.11 -57.89003,58.84 v 110.26 c 0,31.38 27.29,49.84 57.89003,58.84 36.64998,10.78 71.79996,12.72 115.64997,0 29.14996,-8.44 57.89003,-25.43 57.89003,-58.84 V 380.9 H 249.70998 V 366.19 H 423.26 c 33.64997,0 46.18998,-23.47 57.89003,-58.7 12.08997,-36.27 11.56995,-71.15 0,-117.68 -8.32004,-33.5 -24.20006,-58.7 -57.89003,-58.7 h -43.44998 z"
         id="path592"
         style="stroke-width:0.999998" /></clipPath><clipPath
       clipPathUnits="userSpaceOnUse"
       id="clipPath593"><path
         class="st0"
         d="m 379.8,131.1 v 51.42 c 0,39.86 -33.80002,73.41 -72.33,73.41 H 191.82003 c -31.68005,0 -57.89003,27.11 -57.89003,58.84 v 110.26 c 0,31.38 27.29,49.84 57.89003,58.84 36.64998,10.78 71.79996,12.72 115.64997,0 29.14996,-8.44 57.89003,-25.43 57.89003,-58.84 V 380.9 H 249.70998 V 366.19 H 423.26 c 33.64997,0 46.18998,-23.47 57.89003,-58.7 12.08997,-36.27 11.56995,-71.15 0,-117.68 -8.32004,-33.5 -24.20006,-58.7 -57.89003,-58.7 h -43.44998 z"
         id="path593"
         style="stroke-width:0.999998" /></clipPath><clipPath
       clipPathUnits="userSpaceOnUse"
       id="clipPath594"><path
         class="st0"
         d="m 379.8,131.1 v 51.42 c 0,39.86 -33.80002,73.41 -72.33,73.41 H 191.82003 c -31.68005,0 -57.89003,27.11 -57.89003,58.84 v 110.26 c 0,31.38 27.29,49.84 57.89003,58.84 36.64998,10.78 71.79996,12.72 115.64997,0 29.14996,-8.44 57.89003,-25.43 57.89003,-58.84 V 380.9 H 249.70998 V 366.19 H 423.26 c 33.64997,0 46.18998,-23.47 57.89003,-58.7 12.08997,-36.27 11.56995,-71.15 0,-117.68 -8.32004,-33.5 -24.20006,-58.7 -57.89003,-58.7 h -43.44998 z"
         id="path594"
         style="stroke-width:0.999998" /></clipPath><clipPath
       clipPathUnits="userSpaceOnUse"
       id="clipPath595"><path
         class="st0"
         d="m 379.8,131.1 v 51.42 c 0,39.86 -33.80002,73.41 -72.33,73.41 H 191.82003 c -31.68005,0 -57.89003,27.11 -57.89003,58.84 v 110.26 c 0,31.38 27.29,49.84 57.89003,58.84 36.64998,10.78 71.79996,12.72 115.64997,0 29.14996,-8.44 57.89003,-25.43 57.89003,-58.84 V 380.9 H 249.70998 V 366.19 H 423.26 c 33.64997,0 46.18998,-23.47 57.89003,-58.7 12.08997,-36.27 11.56995,-71.15 0,-117.68 -8.32004,-33.5 -24.20006,-58.7 -57.89003,-58.7 h -43.44998 z"
         id="path595"
         style="stroke-width:0.999998" /></clipPath><clipPath
       clipPathUnits="userSpaceOnUse"
       id="clipPath596"><path
         class="st0"
         d="m 379.8,131.1 v 51.42 c 0,39.86 -33.80002,73.41 -72.33,73.41 H 191.82003 c -31.68005,0 -57.89003,27.11 -57.89003,58.84 v 110.26 c 0,31.38 27.29,49.84 57.89003,58.84 36.64998,10.78 71.79996,12.72 115.64997,0 29.14996,-8.44 57.89003,-25.43 57.89003,-58.84 V 380.9 H 249.70998 V 366.19 H 423.26 c 33.64997,0 46.18998,-23.47 57.89003,-58.7 12.08997,-36.27 11.56995,-71.15 0,-117.68 -8.32004,-33.5 -24.20006,-58.7 -57.89003,-58.7 h -43.44998 z"
         id="path596"
         style="stroke-width:0.999998" /></clipPath><clipPath
       clipPathUnits="userSpaceOnUse"
       id="clipPath597"><path
         class="st0"
         d="m 379.8,131.1 v 51.42 c 0,39.86 -33.80002,73.41 -72.33,73.41 H 191.82003 c -31.68005,0 -57.89003,27.11 -57.89003,58.84 v 110.26 c 0,31.38 27.29,49.84 57.89003,58.84 36.64998,10.78 71.79996,12.72 115.64997,0 29.14996,-8.44 57.89003,-25.43 57.89003,-58.84 V 380.9 H 249.70998 V 366.19 H 423.26 c 33.64997,0 46.18998,-23.47 57.89003,-58.7 12.08997,-36.27 11.56995,-71.15 0,-117.68 -8.32004,-33.5 -24.20006,-58.7 -57.89003,-58.7 h -43.44998 z"
         id="path597"
         style="stroke-width:0.999998" /></clipPath><clipPath
       clipPathUnits="userSpaceOnUse"
       id="clipPath598"><path
         class="st0"
         d="m 379.8,131.1 v 51.42 c 0,39.86 -33.80002,73.41 -72.33,73.41 H 191.82003 c -31.68005,0 -57.89003,27.11 -57.89003,58.84 v 110.26 c 0,31.38 27.29,49.84 57.89003,58.84 36.64998,10.78 71.79996,12.72 115.64997,0 29.14996,-8.44 57.89003,-25.43 57.89003,-58.84 V 380.9 H 249.70998 V 366.19 H 423.26 c 33.64997,0 46.18998,-23.47 57.89003,-58.7 12.08997,-36.27 11.56995,-71.15 0,-117.68 -8.32004,-33.5 -24.20006,-58.7 -57.89003,-58.7 h -43.44998 z"
         id="path598"
         style="stroke-width:0.999998" /></clipPath><clipPath
       id="clippath-2-4-20-4"><path
         class="st0"
         d="m 197.3,401.54 h 1.23 c 14.42,0 26.11,11.69 26.11,26.11 v 57.68 h -53.48 v -57.68 c 0,-14.42 11.69,-26.11 26.11,-26.11 z"
         id="path3-2-7-2" /></clipPath><clipPath
       clipPathUnits="userSpaceOnUse"
       id="clipPath590-5"><path
         class="st0"
         d="m 379.8,131.1 v 51.42 c 0,39.86 -33.80002,73.41 -72.33,73.41 H 191.82003 c -31.68005,0 -57.89003,27.11 -57.89003,58.84 v 110.26 c 0,31.38 27.29,49.84 57.89003,58.84 36.64998,10.78 71.79996,12.72 115.64997,0 29.14996,-8.44 57.89003,-25.43 57.89003,-58.84 V 380.9 H 249.70998 V 366.19 H 423.26 c 33.64997,0 46.18998,-23.47 57.89003,-58.7 12.08997,-36.27 11.56995,-71.15 0,-117.68 -8.32004,-33.5 -24.20006,-58.7 -57.89003,-58.7 h -43.44998 z"
         id="path590-5"
         style="stroke-width:0.999998" /></clipPath><clipPath
       clipPathUnits="userSpaceOnUse"
       id="clipPath586-0"><path
         class="st0"
         d="m 379.8,131.1 v 51.42 c 0,39.86 -33.80002,73.41 -72.33,73.41 H 191.82003 c -31.68005,0 -57.89003,27.11 -57.89003,58.84 v 110.26 c 0,31.38 27.29,49.84 57.89003,58.84 36.64998,10.78 71.79996,12.72 115.64997,0 29.14996,-8.44 57.89003,-25.43 57.89003,-58.84 V 380.9 H 249.70998 V 366.19 H 423.26 c 33.64997,0 46.18998,-23.47 57.89003,-58.7 12.08997,-36.27 11.56995,-71.15 0,-117.68 -8.32004,-33.5 -24.20006,-58.7 -57.89003,-58.7 h -43.44998 z"
         id="path586-5"
         style="stroke-width:0.999998" /></clipPath><clipPath
       clipPathUnits="userSpaceOnUse"
       id="clipPath600"><path
         class="st0"
         d="m 324.18838,1933.6086 v 63.6406 c 0,49.3332 -41.833,90.8568 -89.5201,90.8568 H 91.53268 c -39.2092,0 -71.648302,33.553 -71.648302,72.824 v 136.4647 c 0,38.8378 33.775802,61.685 71.648302,72.824 45.3603,13.342 88.8641,15.7431 143.1356,0 36.0778,-10.4459 71.6483,-31.4737 71.6483,-72.824 v -54.6181 h -143.1357 v -18.206 h 214.7963 c 41.6473,0 57.1676,-29.0479 71.6483,-72.6508 14.9633,-44.89 14.31969,-88.0596 0,-145.648 -10.29739,-41.4617 -29.95149,-72.6508 -71.6483,-72.6508 h -53.7764 z"
         id="path600"
         style="stroke-width:0.999998" /></clipPath><clipPath
       clipPathUnits="userSpaceOnUse"
       id="clipPath601"><path
         class="st0"
         d="M 379.8,131.09999 V 182.52 c 0,39.85998 -33.80002,73.41001 -72.33,73.41001 H 191.82003 c -31.68005,0 -57.89003,27.10998 -57.89003,58.83997 v 110.26005 c 0,31.37997 27.29,49.83993 57.89003,58.83996 36.64998,10.78 71.79996,12.72003 115.64997,0 29.14996,-8.44002 57.89003,-25.42996 57.89003,-58.83996 V 380.89997 H 249.70998 V 366.18998 H 423.26 c 33.64997,0 46.18998,-23.46997 57.89003,-58.70002 12.08997,-36.26999 11.56995,-71.14995 0,-117.67993 -8.32004,-33.50001 -24.20006,-58.70002 -57.89003,-58.70002 h -43.44998 z"
         id="path601"
         style="stroke-width:0.999998" /></clipPath><clipPath
       clipPathUnits="userSpaceOnUse"
       id="clipPath602"><path
         class="st0"
         d="m 1933.6086,-324.18838 h 63.6406 c 49.3332,0 90.8568,41.833 90.8568,89.5201 v 143.1356 c 0,39.2092 33.553,71.648302 72.824,71.648302 h 136.4647 c 38.8378,0 61.685,-33.775802 72.824,-71.648302 13.342,-45.3603 15.7431,-88.8641 0,-143.1356 -10.4459,-36.0778 -31.4737,-71.6483 -72.824,-71.6483 h -54.6181 v 143.1357 h -18.206 v -214.7963 c 0,-41.6473 -29.0479,-57.1676 -72.6508,-71.6483 -44.89,-14.9633 -88.0596,-14.31969 -145.648,0 -41.4617,10.29739 -72.6508,29.95149 -72.6508,71.6483 v 53.7764 z"
         id="path602"
         style="stroke-width:0.999998" /></clipPath><clipPath
       clipPathUnits="userSpaceOnUse"
       id="clipPath608"><path
         class="st0"
         d="m 790.24252,-148.10044 v 114.526191 c 0,88.778958 -75.28175,163.503849 -161.09839,163.503849 H 371.56049 c -70.56001,0 -128.9367,60.38127 -128.9367,131.05253 v 245.57872 c 0,69.89172 60.78219,111.00711 128.9367,131.05253 81.62938,24.00997 159.91785,28.33087 257.58364,0 64.92481,-18.79815 128.93669,-56.63946 128.93669,-131.05253 v -98.2894 H 500.497 v -32.76313 h 386.54265 c 74.94755,0 102.87753,-52.27401 128.93665,-130.74071 26.9277,-80.78306 25.7694,-158.47022 0,-262.105065 C 997.44537,-91.95098 962.07629,-148.07817 887.03965,-148.07817 h -96.77481 z"
         id="path608"
         style="stroke-width:0.999997" /></clipPath><clipPath
       clipPathUnits="userSpaceOnUse"
       id="clipPath608-1"><path
         class="st0"
         d="m 790.24252,-148.10044 v 114.526191 c 0,88.778958 -75.28175,163.503849 -161.09839,163.503849 H 371.56049 c -70.56001,0 -128.9367,60.38127 -128.9367,131.05253 v 245.57872 c 0,69.89172 60.78219,111.00711 128.9367,131.05253 81.62938,24.00997 159.91785,28.33087 257.58364,0 64.92481,-18.79815 128.93669,-56.63946 128.93669,-131.05253 v -98.2894 H 500.497 v -32.76313 h 386.54265 c 74.94755,0 102.87753,-52.27401 128.93665,-130.74071 26.9277,-80.78306 25.7694,-158.47022 0,-262.105065 C 997.44537,-91.95098 962.07629,-148.07817 887.03965,-148.07817 h -96.77481 z"
         id="path608-1"
         style="stroke-width:0.999997" /></clipPath><clipPath
       clipPathUnits="userSpaceOnUse"
       id="clipPath643"><path
         class="st0"
         d="M 511.60151,-82.474484 V -2.744e-6 C 511.60151,63.932958 457.38838,117.74507 395.58869,117.74507 H 210.09333 c -50.81283,0 -92.85201,43.48275 -92.85201,94.3757 v 176.85018 c 0,50.33157 43.77146,79.94026 92.85201,94.3757 58.78429,17.29045 115.16267,20.40209 185.49536,0 46.75472,-13.53723 92.852,-40.78813 92.852,-94.3757 V 318.18918 H 302.94521 v -23.59393 h 278.36344 c 53.97245,0 74.08585,-37.64442 92.85197,-94.15115 19.39162,-58.17482 18.55748,-114.12017 0,-188.751396 -13.34479,-53.731916 -38.81536,-94.151149 -92.85197,-94.151149 h -69.69107 z"
         id="path643"
         style="stroke-width:0.999996" /></clipPath><clipPath
       clipPathUnits="userSpaceOnUse"
       id="clipPath644"><path
         class="st0"
         d="M 511.60151,-82.474484 V -2.744e-6 C 511.60151,63.932958 457.38838,117.74507 395.58869,117.74507 H 210.09333 c -50.81283,0 -92.85201,43.48275 -92.85201,94.3757 v 176.85018 c 0,50.33157 43.77146,79.94026 92.85201,94.3757 58.78429,17.29045 115.16267,20.40209 185.49536,0 46.75472,-13.53723 92.852,-40.78813 92.852,-94.3757 V 318.18918 H 302.94521 v -23.59393 h 278.36344 c 53.97245,0 74.08585,-37.64442 92.85197,-94.15115 19.39162,-58.17482 18.55748,-114.12017 0,-188.751396 -13.34479,-53.731916 -38.81536,-94.151149 -92.85197,-94.151149 h -69.69107 z"
         id="path644"
         style="stroke-width:0.999996" /></clipPath><clipPath
       clipPathUnits="userSpaceOnUse"
       id="clipPath645"><path
         class="st0"
         d="M 511.60151,-82.474484 V -2.744e-6 C 511.60151,63.932958 457.38838,117.74507 395.58869,117.74507 H 210.09333 c -50.81283,0 -92.85201,43.48275 -92.85201,94.3757 v 176.85018 c 0,50.33157 43.77146,79.94026 92.85201,94.3757 58.78429,17.29045 115.16267,20.40209 185.49536,0 46.75472,-13.53723 92.852,-40.78813 92.852,-94.3757 V 318.18918 H 302.94521 v -23.59393 h 278.36344 c 53.97245,0 74.08585,-37.64442 92.85197,-94.15115 19.39162,-58.17482 18.55748,-114.12017 0,-188.751396 -13.34479,-53.731916 -38.81536,-94.151149 -92.85197,-94.151149 h -69.69107 z"
         id="path645"
         style="stroke-width:0.999996" /></clipPath><clipPath
       clipPathUnits="userSpaceOnUse"
       id="clipPath646"><path
         class="st0"
         d="M 511.60151,-82.474484 V -2.744e-6 C 511.60151,63.932958 457.38838,117.74507 395.58869,117.74507 H 210.09333 c -50.81283,0 -92.85201,43.48275 -92.85201,94.3757 v 176.85018 c 0,50.33157 43.77146,79.94026 92.85201,94.3757 58.78429,17.29045 115.16267,20.40209 185.49536,0 46.75472,-13.53723 92.852,-40.78813 92.852,-94.3757 V 318.18918 H 302.94521 v -23.59393 h 278.36344 c 53.97245,0 74.08585,-37.64442 92.85197,-94.15115 19.39162,-58.17482 18.55748,-114.12017 0,-188.751396 -13.34479,-53.731916 -38.81536,-94.151149 -92.85197,-94.151149 h -69.69107 z"
         id="path646"
         style="stroke-width:0.999996" /></clipPath><clipPath
       clipPathUnits="userSpaceOnUse"
       id="clipPath647"><path
         class="st0"
         d="M 511.60151,-82.474484 V -2.744e-6 C 511.60151,63.932958 457.38838,117.74507 395.58869,117.74507 H 210.09333 c -50.81283,0 -92.85201,43.48275 -92.85201,94.3757 v 176.85018 c 0,50.33157 43.77146,79.94026 92.85201,94.3757 58.78429,17.29045 115.16267,20.40209 185.49536,0 46.75472,-13.53723 92.852,-40.78813 92.852,-94.3757 V 318.18918 H 302.94521 v -23.59393 h 278.36344 c 53.97245,0 74.08585,-37.64442 92.85197,-94.15115 19.39162,-58.17482 18.55748,-114.12017 0,-188.751396 -13.34479,-53.731916 -38.81536,-94.151149 -92.85197,-94.151149 h -69.69107 z"
         id="path647"
         style="stroke-width:0.999996" /></clipPath><clipPath
       clipPathUnits="userSpaceOnUse"
       id="clipPath648"><path
         class="st0"
         d="M 511.60151,-82.474484 V -2.744e-6 C 511.60151,63.932958 457.38838,117.74507 395.58869,117.74507 H 210.09333 c -50.81283,0 -92.85201,43.48275 -92.85201,94.3757 v 176.85018 c 0,50.33157 43.77146,79.94026 92.85201,94.3757 58.78429,17.29045 115.16267,20.40209 185.49536,0 46.75472,-13.53723 92.852,-40.78813 92.852,-94.3757 V 318.18918 H 302.94521 v -23.59393 h 278.36344 c 53.97245,0 74.08585,-37.64442 92.85197,-94.15115 19.39162,-58.17482 18.55748,-114.12017 0,-188.751396 -13.34479,-53.731916 -38.81536,-94.151149 -92.85197,-94.151149 h -69.69107 z"
         id="path648"
         style="stroke-width:0.999996" /></clipPath><clipPath
       clipPathUnits="userSpaceOnUse"
       id="clipPath649"><path
         class="st0"
         d="M 511.60151,-82.474484 V -2.744e-6 C 511.60151,63.932958 457.38838,117.74507 395.58869,117.74507 H 210.09333 c -50.81283,0 -92.85201,43.48275 -92.85201,94.3757 v 176.85018 c 0,50.33157 43.77146,79.94026 92.85201,94.3757 58.78429,17.29045 115.16267,20.40209 185.49536,0 46.75472,-13.53723 92.852,-40.78813 92.852,-94.3757 V 318.18918 H 302.94521 v -23.59393 h 278.36344 c 53.97245,0 74.08585,-37.64442 92.85197,-94.15115 19.39162,-58.17482 18.55748,-114.12017 0,-188.751396 -13.34479,-53.731916 -38.81536,-94.151149 -92.85197,-94.151149 h -69.69107 z"
         id="path649"
         style="stroke-width:0.999996" /></clipPath><clipPath
       clipPathUnits="userSpaceOnUse"
       id="clipPath650"><path
         class="st0"
         d="M 511.60151,-82.474484 V -2.744e-6 C 511.60151,63.932958 457.38838,117.74507 395.58869,117.74507 H 210.09333 c -50.81283,0 -92.85201,43.48275 -92.85201,94.3757 v 176.85018 c 0,50.33157 43.77146,79.94026 92.85201,94.3757 58.78429,17.29045 115.16267,20.40209 185.49536,0 46.75472,-13.53723 92.852,-40.78813 92.852,-94.3757 V 318.18918 H 302.94521 v -23.59393 h 278.36344 c 53.97245,0 74.08585,-37.64442 92.85197,-94.15115 19.39162,-58.17482 18.55748,-114.12017 0,-188.751396 -13.34479,-53.731916 -38.81536,-94.151149 -92.85197,-94.151149 h -69.69107 z"
         id="path650"
         style="stroke-width:0.999996" /></clipPath><clipPath
       clipPathUnits="userSpaceOnUse"
       id="clipPath651"><path
         class="st0"
         d="M 511.60151,-82.474484 V -2.744e-6 C 511.60151,63.932958 457.38838,117.74507 395.58869,117.74507 H 210.09333 c -50.81283,0 -92.85201,43.48275 -92.85201,94.3757 v 176.85018 c 0,50.33157 43.77146,79.94026 92.85201,94.3757 58.78429,17.29045 115.16267,20.40209 185.49536,0 46.75472,-13.53723 92.852,-40.78813 92.852,-94.3757 V 318.18918 H 302.94521 v -23.59393 h 278.36344 c 53.97245,0 74.08585,-37.64442 92.85197,-94.15115 19.39162,-58.17482 18.55748,-114.12017 0,-188.751396 -13.34479,-53.731916 -38.81536,-94.151149 -92.85197,-94.151149 h -69.69107 z"
         id="path651"
         style="stroke-width:0.999996" /></clipPath><clipPath
       clipPathUnits="userSpaceOnUse"
       id="clipPath652"><path
         class="st0"
         d="M 511.60151,-82.474484 V -2.744e-6 C 511.60151,63.932958 457.38838,117.74507 395.58869,117.74507 H 210.09333 c -50.81283,0 -92.85201,43.48275 -92.85201,94.3757 v 176.85018 c 0,50.33157 43.77146,79.94026 92.85201,94.3757 58.78429,17.29045 115.16267,20.40209 185.49536,0 46.75472,-13.53723 92.852,-40.78813 92.852,-94.3757 V 318.18918 H 302.94521 v -23.59393 h 278.36344 c 53.97245,0 74.08585,-37.64442 92.85197,-94.15115 19.39162,-58.17482 18.55748,-114.12017 0,-188.751396 -13.34479,-53.731916 -38.81536,-94.151149 -92.85197,-94.151149 h -69.69107 z"
         id="path652"
         style="stroke-width:0.999996" /></clipPath><clipPath
       clipPathUnits="userSpaceOnUse"
       id="clipPath653"><path
         class="st0"
         d="M 511.60151,-82.474484 V -2.744e-6 C 511.60151,63.932958 457.38838,117.74507 395.58869,117.74507 H 210.09333 c -50.81283,0 -92.85201,43.48275 -92.85201,94.3757 v 176.85018 c 0,50.33157 43.77146,79.94026 92.85201,94.3757 58.78429,17.29045 115.16267,20.40209 185.49536,0 46.75472,-13.53723 92.852,-40.78813 92.852,-94.3757 V 318.18918 H 302.94521 v -23.59393 h 278.36344 c 53.97245,0 74.08585,-37.64442 92.85197,-94.15115 19.39162,-58.17482 18.55748,-114.12017 0,-188.751396 -13.34479,-53.731916 -38.81536,-94.151149 -92.85197,-94.151149 h -69.69107 z"
         id="path653"
         style="stroke-width:0.999996" /></clipPath><clipPath
       clipPathUnits="userSpaceOnUse"
       id="clipPath654"><path
         class="st0"
         d="M 511.60151,-82.474484 V -2.744e-6 C 511.60151,63.932958 457.38838,117.74507 395.58869,117.74507 H 210.09333 c -50.81283,0 -92.85201,43.48275 -92.85201,94.3757 v 176.85018 c 0,50.33157 43.77146,79.94026 92.85201,94.3757 58.78429,17.29045 115.16267,20.40209 185.49536,0 46.75472,-13.53723 92.852,-40.78813 92.852,-94.3757 V 318.18918 H 302.94521 v -23.59393 h 278.36344 c 53.97245,0 74.08585,-37.64442 92.85197,-94.15115 19.39162,-58.17482 18.55748,-114.12017 0,-188.751396 -13.34479,-53.731916 -38.81536,-94.151149 -92.85197,-94.151149 h -69.69107 z"
         id="path654"
         style="stroke-width:0.999996" /></clipPath><clipPath
       clipPathUnits="userSpaceOnUse"
       id="clipPath655"><path
         class="st0"
         d="M 511.60151,-82.474484 V -2.744e-6 C 511.60151,63.932958 457.38838,117.74507 395.58869,117.74507 H 210.09333 c -50.81283,0 -92.85201,43.48275 -92.85201,94.3757 v 176.85018 c 0,50.33157 43.77146,79.94026 92.85201,94.3757 58.78429,17.29045 115.16267,20.40209 185.49536,0 46.75472,-13.53723 92.852,-40.78813 92.852,-94.3757 V 318.18918 H 302.94521 v -23.59393 h 278.36344 c 53.97245,0 74.08585,-37.64442 92.85197,-94.15115 19.39162,-58.17482 18.55748,-114.12017 0,-188.751396 -13.34479,-53.731916 -38.81536,-94.151149 -92.85197,-94.151149 h -69.69107 z"
         id="path655"
         style="stroke-width:0.999996" /></clipPath><clipPath
       clipPathUnits="userSpaceOnUse"
       id="clipPath656"><path
         class="st0"
         d="M 511.60151,-82.474484 V -2.744e-6 C 511.60151,63.932958 457.38838,117.74507 395.58869,117.74507 H 210.09333 c -50.81283,0 -92.85201,43.48275 -92.85201,94.3757 v 176.85018 c 0,50.33157 43.77146,79.94026 92.85201,94.3757 58.78429,17.29045 115.16267,20.40209 185.49536,0 46.75472,-13.53723 92.852,-40.78813 92.852,-94.3757 V 318.18918 H 302.94521 v -23.59393 h 278.36344 c 53.97245,0 74.08585,-37.64442 92.85197,-94.15115 19.39162,-58.17482 18.55748,-114.12017 0,-188.751396 -13.34479,-53.731916 -38.81536,-94.151149 -92.85197,-94.151149 h -69.69107 z"
         id="path656"
         style="stroke-width:0.999996" /></clipPath><clipPath
       clipPathUnits="userSpaceOnUse"
       id="clipPath657"><path
         class="st0"
         d="M 511.60151,-82.474484 V -2.744e-6 C 511.60151,63.932958 457.38838,117.74507 395.58869,117.74507 H 210.09333 c -50.81283,0 -92.85201,43.48275 -92.85201,94.3757 v 176.85018 c 0,50.33157 43.77146,79.94026 92.85201,94.3757 58.78429,17.29045 115.16267,20.40209 185.49536,0 46.75472,-13.53723 92.852,-40.78813 92.852,-94.3757 V 318.18918 H 302.94521 v -23.59393 h 278.36344 c 53.97245,0 74.08585,-37.64442 92.85197,-94.15115 19.39162,-58.17482 18.55748,-114.12017 0,-188.751396 -13.34479,-53.731916 -38.81536,-94.151149 -92.85197,-94.151149 h -69.69107 z"
         id="path657"
         style="stroke-width:0.999996" /></clipPath><clipPath
       clipPathUnits="userSpaceOnUse"
       id="clipPath658"><path
         class="st0"
         d="M 511.60151,-82.474484 V -2.744e-6 C 511.60151,63.932958 457.38838,117.74507 395.58869,117.74507 H 210.09333 c -50.81283,0 -92.85201,43.48275 -92.85201,94.3757 v 176.85018 c 0,50.33157 43.77146,79.94026 92.85201,94.3757 58.78429,17.29045 115.16267,20.40209 185.49536,0 46.75472,-13.53723 92.852,-40.78813 92.852,-94.3757 V 318.18918 H 302.94521 v -23.59393 h 278.36344 c 53.97245,0 74.08585,-37.64442 92.85197,-94.15115 19.39162,-58.17482 18.55748,-114.12017 0,-188.751396 -13.34479,-53.731916 -38.81536,-94.151149 -92.85197,-94.151149 h -69.69107 z"
         id="path658"
         style="stroke-width:0.999996" /></clipPath><clipPath
       clipPathUnits="userSpaceOnUse"
       id="clipPath659"><path
         class="st0"
         d="M 511.60151,-82.474484 V -2.744e-6 C 511.60151,63.932958 457.38838,117.74507 395.58869,117.74507 H 210.09333 c -50.81283,0 -92.85201,43.48275 -92.85201,94.3757 v 176.85018 c 0,50.33157 43.77146,79.94026 92.85201,94.3757 58.78429,17.29045 115.16267,20.40209 185.49536,0 46.75472,-13.53723 92.852,-40.78813 92.852,-94.3757 V 318.18918 H 302.94521 v -23.59393 h 278.36344 c 53.97245,0 74.08585,-37.64442 92.85197,-94.15115 19.39162,-58.17482 18.55748,-114.12017 0,-188.751396 -13.34479,-53.731916 -38.81536,-94.151149 -92.85197,-94.151149 h -69.69107 z"
         id="path659"
         style="stroke-width:0.999996" /></clipPath><clipPath
       clipPathUnits="userSpaceOnUse"
       id="clipPath660"><path
         class="st0"
         d="M 511.60151,-82.474484 V -2.744e-6 C 511.60151,63.932958 457.38838,117.74507 395.58869,117.74507 H 210.09333 c -50.81283,0 -92.85201,43.48275 -92.85201,94.3757 v 176.85018 c 0,50.33157 43.77146,79.94026 92.85201,94.3757 58.78429,17.29045 115.16267,20.40209 185.49536,0 46.75472,-13.53723 92.852,-40.78813 92.852,-94.3757 V 318.18918 H 302.94521 v -23.59393 h 278.36344 c 53.97245,0 74.08585,-37.64442 92.85197,-94.15115 19.39162,-58.17482 18.55748,-114.12017 0,-188.751396 -13.34479,-53.731916 -38.81536,-94.151149 -92.85197,-94.151149 h -69.69107 z"
         id="path660"
         style="stroke-width:0.999996" /></clipPath><clipPath
       clipPathUnits="userSpaceOnUse"
       id="clipPath661"><path
         class="st0"
         d="M 511.60151,-82.474484 V -2.744e-6 C 511.60151,63.932958 457.38838,117.74507 395.58869,117.74507 H 210.09333 c -50.81283,0 -92.85201,43.48275 -92.85201,94.3757 v 176.85018 c 0,50.33157 43.77146,79.94026 92.85201,94.3757 58.78429,17.29045 115.16267,20.40209 185.49536,0 46.75472,-13.53723 92.852,-40.78813 92.852,-94.3757 V 318.18918 H 302.94521 v -23.59393 h 278.36344 c 53.97245,0 74.08585,-37.64442 92.85197,-94.15115 19.39162,-58.17482 18.55748,-114.12017 0,-188.751396 -13.34479,-53.731916 -38.81536,-94.151149 -92.85197,-94.151149 h -69.69107 z"
         id="path661"
         style="stroke-width:0.999996" /></clipPath><clipPath
       clipPathUnits="userSpaceOnUse"
       id="clipPath662"><path
         class="st0"
         d="M 511.60151,-82.474484 V -2.744e-6 C 511.60151,63.932958 457.38838,117.74507 395.58869,117.74507 H 210.09333 c -50.81283,0 -92.85201,43.48275 -92.85201,94.3757 v 176.85018 c 0,50.33157 43.77146,79.94026 92.85201,94.3757 58.78429,17.29045 115.16267,20.40209 185.49536,0 46.75472,-13.53723 92.852,-40.78813 92.852,-94.3757 V 318.18918 H 302.94521 v -23.59393 h 278.36344 c 53.97245,0 74.08585,-37.64442 92.85197,-94.15115 19.39162,-58.17482 18.55748,-114.12017 0,-188.751396 -13.34479,-53.731916 -38.81536,-94.151149 -92.85197,-94.151149 h -69.69107 z"
         id="path662"
         style="stroke-width:0.999996" /></clipPath><clipPath
       clipPathUnits="userSpaceOnUse"
       id="clipPath663"><path
         class="st0"
         d="M 511.60151,-82.474484 V -2.744e-6 C 511.60151,63.932958 457.38838,117.74507 395.58869,117.74507 H 210.09333 c -50.81283,0 -92.85201,43.48275 -92.85201,94.3757 v 176.85018 c 0,50.33157 43.77146,79.94026 92.85201,94.3757 58.78429,17.29045 115.16267,20.40209 185.49536,0 46.75472,-13.53723 92.852,-40.78813 92.852,-94.3757 V 318.18918 H 302.94521 v -23.59393 h 278.36344 c 53.97245,0 74.08585,-37.64442 92.85197,-94.15115 19.39162,-58.17482 18.55748,-114.12017 0,-188.751396 -13.34479,-53.731916 -38.81536,-94.151149 -92.85197,-94.151149 h -69.69107 z"
         id="path663"
         style="stroke-width:0.999996" /></clipPath><clipPath
       clipPathUnits="userSpaceOnUse"
       id="clipPath664"><path
         class="st0"
         d="m 118.5775,504.45765 -82.26649,5.85364 C -27.460717,514.84895 -84.984906,464.59186 -89.37115,402.94802 l -13.16557,-185.02755 c -3.60645,-50.68469 -49.96327,-89.53165 -100.72788,-85.91951 l -176.40417,12.55197 c -50.20464,3.57229 -76.63197,49.33484 -87.54751,99.31618 -13.07462,59.86323 -12.17695,116.32028 13.16557,185.02755 16.82151,45.676 47.27545,89.72289 100.72788,85.9195 l 70.60326,-5.02374 -13.16557,-185.02768 23.53442,-1.67458 19.7569,277.66143 c 3.8307,53.83633 42.80774,71.22719 100.50389,85.93541 59.404434,15.21375 115.149491,10.41098 188.275383,-13.39667 52.649259,-17.12476 91.158777,-45.39986 87.323527,-99.3002 l -4.94634,-69.51531 z"
         id="path664"
         style="stroke-width:0.999996" /></clipPath><clipPath
       clipPathUnits="userSpaceOnUse"
       id="clipPath665"><path
         class="st0"
         d="M 511.60151,-82.474484 V -2.744e-6 C 511.60151,63.932958 457.38838,117.74507 395.58869,117.74507 H 210.09333 c -50.81283,0 -92.85201,43.48275 -92.85201,94.3757 v 176.85018 c 0,50.33157 43.77146,79.94026 92.85201,94.3757 58.78429,17.29045 115.16267,20.40209 185.49536,0 46.75472,-13.53723 92.852,-40.78813 92.852,-94.3757 V 318.18918 H 302.94521 v -23.59393 h 278.36344 c 53.97245,0 74.08585,-37.64442 92.85197,-94.15115 19.39162,-58.17482 18.55748,-114.12017 0,-188.751396 -13.34479,-53.731916 -38.81536,-94.151149 -92.85197,-94.151149 h -69.69107 z"
         id="path665"
         style="stroke-width:0.999996" /></clipPath><clipPath
       clipPathUnits="userSpaceOnUse"
       id="clipPath666"><path
         class="st0"
         d="M 511.60151,-82.474484 V -2.744e-6 C 511.60151,63.932958 457.38838,117.74507 395.58869,117.74507 H 210.09333 c -50.81283,0 -92.85201,43.48275 -92.85201,94.3757 v 176.85018 c 0,50.33157 43.77146,79.94026 92.85201,94.3757 58.78429,17.29045 115.16267,20.40209 185.49536,0 46.75472,-13.53723 92.852,-40.78813 92.852,-94.3757 V 318.18918 H 302.94521 v -23.59393 h 278.36344 c 53.97245,0 74.08585,-37.64442 92.85197,-94.15115 19.39162,-58.17482 18.55748,-114.12017 0,-188.751396 -13.34479,-53.731916 -38.81536,-94.151149 -92.85197,-94.151149 h -69.69107 z"
         id="path666"
         style="stroke-width:0.999996" /></clipPath><clipPath
       clipPathUnits="userSpaceOnUse"
       id="clipPath667"><path
         class="st0"
         d="M 511.60151,-82.474484 V -2.744e-6 C 511.60151,63.932958 457.38838,117.74507 395.58869,117.74507 H 210.09333 c -50.81283,0 -92.85201,43.48275 -92.85201,94.3757 v 176.85018 c 0,50.33157 43.77146,79.94026 92.85201,94.3757 58.78429,17.29045 115.16267,20.40209 185.49536,0 46.75472,-13.53723 92.852,-40.78813 92.852,-94.3757 V 318.18918 H 302.94521 v -23.59393 h 278.36344 c 53.97245,0 74.08585,-37.64442 92.85197,-94.15115 19.39162,-58.17482 18.55748,-114.12017 0,-188.751396 -13.34479,-53.731916 -38.81536,-94.151149 -92.85197,-94.151149 h -69.69107 z"
         id="path667"
         style="stroke-width:0.999996" /></clipPath><clipPath
       clipPathUnits="userSpaceOnUse"
       id="clipPath668"><path
         class="st0"
         d="M 511.60151,-82.474484 V -2.744e-6 C 511.60151,63.932958 457.38838,117.74507 395.58869,117.74507 H 210.09333 c -50.81283,0 -92.85201,43.48275 -92.85201,94.3757 v 176.85018 c 0,50.33157 43.77146,79.94026 92.85201,94.3757 58.78429,17.29045 115.16267,20.40209 185.49536,0 46.75472,-13.53723 92.852,-40.78813 92.852,-94.3757 V 318.18918 H 302.94521 v -23.59393 h 278.36344 c 53.97245,0 74.08585,-37.64442 92.85197,-94.15115 19.39162,-58.17482 18.55748,-114.12017 0,-188.751396 -13.34479,-53.731916 -38.81536,-94.151149 -92.85197,-94.151149 h -69.69107 z"
         id="path668"
         style="stroke-width:0.999996" /></clipPath><clipPath
       clipPathUnits="userSpaceOnUse"
       id="clipPath669"><path
         class="st0"
         d="M 511.60151,-82.474484 V -2.744e-6 C 511.60151,63.932958 457.38838,117.74507 395.58869,117.74507 H 210.09333 c -50.81283,0 -92.85201,43.48275 -92.85201,94.3757 v 176.85018 c 0,50.33157 43.77146,79.94026 92.85201,94.3757 58.78429,17.29045 115.16267,20.40209 185.49536,0 46.75472,-13.53723 92.852,-40.78813 92.852,-94.3757 V 318.18918 H 302.94521 v -23.59393 h 278.36344 c 53.97245,0 74.08585,-37.64442 92.85197,-94.15115 19.39162,-58.17482 18.55748,-114.12017 0,-188.751396 -13.34479,-53.731916 -38.81536,-94.151149 -92.85197,-94.151149 h -69.69107 z"
         id="path669"
         style="stroke-width:0.999996" /></clipPath><clipPath
       clipPathUnits="userSpaceOnUse"
       id="clipPath670"><path
         class="st0"
         d="M 511.60151,-82.474484 V -2.744e-6 C 511.60151,63.932958 457.38838,117.74507 395.58869,117.74507 H 210.09333 c -50.81283,0 -92.85201,43.48275 -92.85201,94.3757 v 176.85018 c 0,50.33157 43.77146,79.94026 92.85201,94.3757 58.78429,17.29045 115.16267,20.40209 185.49536,0 46.75472,-13.53723 92.852,-40.78813 92.852,-94.3757 V 318.18918 H 302.94521 v -23.59393 h 278.36344 c 53.97245,0 74.08585,-37.64442 92.85197,-94.15115 19.39162,-58.17482 18.55748,-114.12017 0,-188.751396 -13.34479,-53.731916 -38.81536,-94.151149 -92.85197,-94.151149 h -69.69107 z"
         id="path670"
         style="stroke-width:0.999996" /></clipPath><clipPath
       clipPathUnits="userSpaceOnUse"
       id="clipPath671"><path
         class="st0"
         d="M 511.60151,-82.474484 V -2.744e-6 C 511.60151,63.932958 457.38838,117.74507 395.58869,117.74507 H 210.09333 c -50.81283,0 -92.85201,43.48275 -92.85201,94.3757 v 176.85018 c 0,50.33157 43.77146,79.94026 92.85201,94.3757 58.78429,17.29045 115.16267,20.40209 185.49536,0 46.75472,-13.53723 92.852,-40.78813 92.852,-94.3757 V 318.18918 H 302.94521 v -23.59393 h 278.36344 c 53.97245,0 74.08585,-37.64442 92.85197,-94.15115 19.39162,-58.17482 18.55748,-114.12017 0,-188.751396 -13.34479,-53.731916 -38.81536,-94.151149 -92.85197,-94.151149 h -69.69107 z"
         id="path671"
         style="stroke-width:0.999996" /></clipPath><clipPath
       id="clippath-46-9-2"><path
         class="st0"
         d="m 379.8,131.1 v 51.42 c 0,39.86 -33.8,73.41 -72.33,73.41 H 191.82 c -31.68,0 -57.89,27.11 -57.89,58.84 v 110.26 c 0,31.38 27.29,49.84 57.89,58.84 36.65,10.78 71.8,12.72 115.65,0 29.15,-8.44 57.89,-25.43 57.89,-58.84 V 380.9 H 249.71 v -14.71 h 173.55 c 33.65,0 46.19,-23.47 57.89,-58.7 12.09,-36.27 11.57,-71.15 0,-117.68 -8.32,-33.5 -24.2,-58.7 -57.89,-58.7 h -43.45 z"
         id="path1-9-4-7-5" /></clipPath><clipPath
       id="clippath-1-9-6-8"><path
         class="st0"
         d="m 161.4,346.62 c 2.94,3.23 15.21,15.96 34.44,16.82 21.84,0.97 36.1,-14.12 38.57,-16.82 v 137.22 c -3,0.07 -7.82,0.06 -13.7,-0.48 -20.68,-1.9 -36.13,-9.3 -44.72,-13.46 -3.45,-1.67 -8.34,-4.19 -14.02,-7.68 -0.19,-38.54 -0.37,-77.07 -0.56,-115.61 z"
         id="path2-4-8-8-6" /></clipPath><clipPath
       id="clippath-2-4-2-2"><path
         class="st0"
         d="m 197.3,401.54 h 1.23 c 14.42,0 26.11,11.69 26.11,26.11 v 57.68 h -53.48 v -57.68 c 0,-14.42 11.69,-26.11 26.11,-26.11 z"
         id="path3-2-0-8" /></clipPath><clipPath
       id="clippath-3-5-6-4"><path
         class="st0"
         d="m 247.14,7.31 c -19.79,0.09 -38.7,1.78 -55.33,4.72 -49,8.66 -57.89,26.77 -57.89,60.19 v 44.13 h 115.79 v 14.71 H 90.46 c -33.65,0 -63.12,20.23 -72.33,58.7 -10.63,44.1 -11.1,71.63 0,117.68 8.23,34.28 27.89,58.7 61.54,58.7 h 39.81 v -52.9 c 0,-38.22 33.07,-71.93 72.33,-71.93 h 115.65 c 32.19,0 57.89,-26.51 57.89,-58.84 V 72.21 C 365.35,40.83 338.88,17.26 307.46,12.02 287.57,8.71 266.93,7.2 247.14,7.3 Z"
         id="path4-7-4-7" /></clipPath><clipPath
       id="clippath-4-2-3-2"><circle
         class="st0"
         cx="301.76001"
         cy="177.03"
         r="45.619999"
         id="circle4-7-3-4" /></clipPath><clipPath
       id="clippath-5-4-6-0"><path
         class="st0"
         d="m 197.43,153.58 h 0.96 c 11.28,0 20.42,9.14 20.42,20.42 v 45.12 H 176.98 V 174 c 0,-11.28 9.15,-20.42 20.42,-20.42 h 0.02 z"
         id="path5-4-9-6" /></clipPath></defs><g
     class="st8"
     clip-path="url(#clippath-3-5-6-4)"
     id="g206-7-3"
     transform="matrix(0.45507955,0,0,0.45507955,234.16786,-1266.4352)"
     style="stroke-width:2.19743" /><g
     id="g1"
     transform="translate(42.652161,-1496.9926)"><rect
       width="1500"
       height="500.00003"
       fill="#0009e7"
       id="rect2-0-5-1-6"
       x="-42.652161"
       y="1496.9926"
       style="fill:#ee714b;fill-opacity:1;stroke-width:0.999999"
       inkscape:export-filename="rect2-0-5-1.png"
       inkscape:export-xdpi="400"
       inkscape:export-ydpi="400" /><rect
       style="opacity:0.556442;fill:#151f38;fill-opacity:1;fill-rule:evenodd;stroke-width:15.0009;stroke-linecap:square;stroke-linejoin:bevel;stroke-miterlimit:40.5;paint-order:markers stroke fill"
       id="rect1-4"
       width="832.48303"
       height="207"
       x="291.10632"
       y="1615.4926" /><text
       xml:space="preserve"
       style="font-size:86.0943px;line-height:1.25;font-family:'Arial Black';-inkscape-font-specification:'Arial Black, ';letter-spacing:0px;word-spacing:0px;fill:#ffffff;fill-opacity:1;stroke-width:0.999999"
       x="288.12155"
       y="1821.4417"
       id="text1-0"><tspan
         sodipodi:role="line"
         id="tspan1-0"
         x="288.12155"
         y="1821.4417"
         style="fill:#ffffff;fill-opacity:1;stroke-width:0.999999">Safe Area - Text 2</tspan></text><text
       xml:space="preserve"
       style="font-size:87.2799px;line-height:1.25;font-family:'Arial Black';-inkscape-font-specification:'Arial Black, ';letter-spacing:0px;word-spacing:0px;fill:#ffffff;fill-opacity:1;stroke-width:0.999998"
       x="288.08038"
       y="1679.0347"
       id="text1-7-4"><tspan
         sodipodi:role="line"
         id="tspan1-7-6"
         x="288.08038"
         y="1679.0347"
         style="fill:#ffffff;fill-opacity:1;stroke-width:0.999998">Safe Area - Text 1</tspan></text><g
       id="g7"><rect
         style="fill:#f5e5d6;fill-opacity:1;fill-rule:evenodd;stroke-width:15.0009;stroke-linecap:square;stroke-linejoin:bevel;stroke-miterlimit:40.5;paint-order:markers stroke fill"
         id="rect2-26"
         width="45"
         height="45"
         x="-42.652161"
         y="1496.9926" /><rect
         style="fill:#88e5d6;fill-opacity:1;fill-rule:evenodd;stroke-width:15.0009;stroke-linecap:square;stroke-linejoin:bevel;stroke-miterlimit:40.5;paint-order:markers stroke fill"
         id="rect2-2-7"
         width="45"
         height="45"
         x="2.3478379"
         y="1496.9926"
         inkscape:transform-center-x="-61.89591"
         inkscape:transform-center-y="12.894981" /><rect
         style="fill:#f5e574;fill-opacity:1;fill-rule:evenodd;stroke-width:15.0009;stroke-linecap:square;stroke-linejoin:bevel;stroke-miterlimit:40.5;paint-order:markers stroke fill"
         id="rect2-2-3-56"
         width="45"
         height="45"
         x="47.347839"
         y="1496.9926"
         inkscape:transform-center-x="-61.89591"
         inkscape:transform-center-y="12.894981" /><rect
         style="fill:#f57cd6;fill-opacity:1;fill-rule:evenodd;stroke-width:15.0009;stroke-linecap:square;stroke-linejoin:bevel;stroke-miterlimit:40.5;paint-order:markers stroke fill"
         id="rect2-2-0-98"
         width="45"
         height="45"
         x="92.347839"
         y="1496.9926"
         inkscape:transform-center-x="-61.89591"
         inkscape:transform-center-y="12.894981" /><rect
         style="fill:#333ad6;fill-opacity:1;fill-rule:evenodd;stroke-width:15.0009;stroke-linecap:square;stroke-linejoin:bevel;stroke-miterlimit:40.5;paint-order:markers stroke fill"
         id="rect2-1-7"
         width="45"
         height="45"
         x="-42.652161"
         y="1541.9926" /><rect
         style="fill:#88e56a;fill-opacity:1;fill-rule:evenodd;stroke-width:15.0009;stroke-linecap:square;stroke-linejoin:bevel;stroke-miterlimit:40.5;paint-order:markers stroke fill"
         id="rect2-2-08-2"
         width="45"
         height="45"
         x="2.3478379"
         y="1541.9926"
         inkscape:transform-center-x="-61.89591"
         inkscape:transform-center-y="12.894981" /><rect
         style="fill:#f52474;fill-opacity:1;fill-rule:evenodd;stroke-width:15.0009;stroke-linecap:square;stroke-linejoin:bevel;stroke-miterlimit:40.5;paint-order:markers stroke fill"
         id="rect2-2-3-5-82"
         width="45"
         height="45"
         x="47.347839"
         y="1541.9926"
         inkscape:transform-center-x="-61.89591"
         inkscape:transform-center-y="12.894981" /><rect
         style="fill:#537c69;fill-opacity:1;fill-rule:evenodd;stroke-width:15.0009;stroke-linecap:square;stroke-linejoin:bevel;stroke-miterlimit:40.5;paint-order:markers stroke fill"
         id="rect2-2-0-0-99"
         width="45"
         height="45"
         x="92.347839"
         y="1541.9926"
         inkscape:transform-center-x="-61.89591"
         inkscape:transform-center-y="12.894981" /></g><g
       id="g10"><rect
         style="fill:#f5e5d6;fill-opacity:1;fill-rule:evenodd;stroke-width:15.0009;stroke-linecap:square;stroke-linejoin:bevel;stroke-miterlimit:40.5;paint-order:markers stroke fill"
         id="rect2-6-6"
         width="45"
         height="45"
         x="-42.652161"
         y="1906.9926" /><rect
         style="fill:#88e5d6;fill-opacity:1;fill-rule:evenodd;stroke-width:15.0009;stroke-linecap:square;stroke-linejoin:bevel;stroke-miterlimit:40.5;paint-order:markers stroke fill"
         id="rect2-2-2-0"
         width="45"
         height="45"
         x="2.3478379"
         y="1906.9926"
         inkscape:transform-center-x="-61.89591"
         inkscape:transform-center-y="12.894981" /><rect
         style="fill:#f5e574;fill-opacity:1;fill-rule:evenodd;stroke-width:15.0009;stroke-linecap:square;stroke-linejoin:bevel;stroke-miterlimit:40.5;paint-order:markers stroke fill"
         id="rect2-2-3-58-2"
         width="45"
         height="45"
         x="47.347839"
         y="1906.9926"
         inkscape:transform-center-x="-61.89591"
         inkscape:transform-center-y="12.894981" /><rect
         style="fill:#f57cd6;fill-opacity:1;fill-rule:evenodd;stroke-width:15.0009;stroke-linecap:square;stroke-linejoin:bevel;stroke-miterlimit:40.5;paint-order:markers stroke fill"
         id="rect2-2-0-6-7"
         width="45"
         height="45"
         x="92.347839"
         y="1906.9926"
         inkscape:transform-center-x="-61.89591"
         inkscape:transform-center-y="12.894981" /><rect
         style="fill:#333ad6;fill-opacity:1;fill-rule:evenodd;stroke-width:15.0009;stroke-linecap:square;stroke-linejoin:bevel;stroke-miterlimit:40.5;paint-order:markers stroke fill"
         id="rect2-1-2-6"
         width="45"
         height="45"
         x="-42.652161"
         y="1951.9926" /><rect
         style="fill:#88e56a;fill-opacity:1;fill-rule:evenodd;stroke-width:15.0009;stroke-linecap:square;stroke-linejoin:bevel;stroke-miterlimit:40.5;paint-order:markers stroke fill"
         id="rect2-2-08-8-1"
         width="45"
         height="45"
         x="2.3478379"
         y="1951.9926"
         inkscape:transform-center-x="-61.89591"
         inkscape:transform-center-y="12.894981" /><rect
         style="fill:#f52474;fill-opacity:1;fill-rule:evenodd;stroke-width:15.0009;stroke-linecap:square;stroke-linejoin:bevel;stroke-miterlimit:40.5;paint-order:markers stroke fill"
         id="rect2-2-3-5-4-3"
         width="45"
         height="45"
         x="47.347839"
         y="1951.9926"
         inkscape:transform-center-x="-61.89591"
         inkscape:transform-center-y="12.894981" /><rect
         style="fill:#537c69;fill-opacity:1;fill-rule:evenodd;stroke-width:15.0009;stroke-linecap:square;stroke-linejoin:bevel;stroke-miterlimit:40.5;paint-order:markers stroke fill"
         id="rect2-2-0-0-7-2"
         width="45"
         height="45"
         x="92.347839"
         y="1951.9926"
         inkscape:transform-center-x="-61.89591"
         inkscape:transform-center-y="12.894981" /></g><g
       id="g9"><rect
         style="fill:#f5e5d6;fill-opacity:1;fill-rule:evenodd;stroke-width:15.0009;stroke-linecap:square;stroke-linejoin:bevel;stroke-miterlimit:40.5;paint-order:markers stroke fill"
         id="rect2-0-1"
         width="45"
         height="45"
         x="1277.3478"
         y="1906.9926" /><rect
         style="fill:#88e5d6;fill-opacity:1;fill-rule:evenodd;stroke-width:15.0009;stroke-linecap:square;stroke-linejoin:bevel;stroke-miterlimit:40.5;paint-order:markers stroke fill"
         id="rect2-2-6-5"
         width="45"
         height="45"
         x="1322.3478"
         y="1906.9926"
         inkscape:transform-center-x="-61.89591"
         inkscape:transform-center-y="12.894981" /><rect
         style="fill:#f5e574;fill-opacity:1;fill-rule:evenodd;stroke-width:15.0009;stroke-linecap:square;stroke-linejoin:bevel;stroke-miterlimit:40.5;paint-order:markers stroke fill"
         id="rect2-2-3-2-9"
         width="45"
         height="45"
         x="1367.3478"
         y="1906.9926"
         inkscape:transform-center-x="-61.89591"
         inkscape:transform-center-y="12.894981" /><rect
         style="fill:#f57cd6;fill-opacity:1;fill-rule:evenodd;stroke-width:15.0009;stroke-linecap:square;stroke-linejoin:bevel;stroke-miterlimit:40.5;paint-order:markers stroke fill"
         id="rect2-2-0-9-9"
         width="45"
         height="45"
         x="1412.3478"
         y="1906.9926"
         inkscape:transform-center-x="-61.89591"
         inkscape:transform-center-y="12.894981" /><rect
         style="fill:#333ad6;fill-opacity:1;fill-rule:evenodd;stroke-width:15.0009;stroke-linecap:square;stroke-linejoin:bevel;stroke-miterlimit:40.5;paint-order:markers stroke fill"
         id="rect2-1-9-1"
         width="45"
         height="45"
         x="1277.3478"
         y="1951.9926" /><rect
         style="fill:#88e56a;fill-opacity:1;fill-rule:evenodd;stroke-width:15.0009;stroke-linecap:square;stroke-linejoin:bevel;stroke-miterlimit:40.5;paint-order:markers stroke fill"
         id="rect2-2-08-0-4"
         width="45"
         height="45"
         x="1322.3478"
         y="1951.9926"
         inkscape:transform-center-x="-61.89591"
         inkscape:transform-center-y="12.894981" /><rect
         style="fill:#f52474;fill-opacity:1;fill-rule:evenodd;stroke-width:15.0009;stroke-linecap:square;stroke-linejoin:bevel;stroke-miterlimit:40.5;paint-order:markers stroke fill"
         id="rect2-2-3-5-8-9"
         width="45"
         height="45"
         x="1367.3478"
         y="1951.9926"
         inkscape:transform-center-x="-61.89591"
         inkscape:transform-center-y="12.894981" /><rect
         style="fill:#537c69;fill-opacity:1;fill-rule:evenodd;stroke-width:15.0009;stroke-linecap:square;stroke-linejoin:bevel;stroke-miterlimit:40.5;paint-order:markers stroke fill"
         id="rect2-2-0-0-1-1"
         width="45"
         height="45"
         x="1412.3478"
         y="1951.9926"
         inkscape:transform-center-x="-61.89591"
         inkscape:transform-center-y="12.894981" /></g><g
       id="g8"><rect
         style="fill:#f5e5d6;fill-opacity:1;fill-rule:evenodd;stroke-width:15.0009;stroke-linecap:square;stroke-linejoin:bevel;stroke-miterlimit:40.5;paint-order:markers stroke fill"
         id="rect2-10-0"
         width="45"
         height="45"
         x="1277.3478"
         y="1496.9926" /><rect
         style="fill:#88e5d6;fill-opacity:1;fill-rule:evenodd;stroke-width:15.0009;stroke-linecap:square;stroke-linejoin:bevel;stroke-miterlimit:40.5;paint-order:markers stroke fill"
         id="rect2-2-34-7"
         width="45"
         height="45"
         x="1322.3478"
         y="1496.9926"
         inkscape:transform-center-x="-61.89591"
         inkscape:transform-center-y="12.894981" /><rect
         style="fill:#f5e574;fill-opacity:1;fill-rule:evenodd;stroke-width:15.0009;stroke-linecap:square;stroke-linejoin:bevel;stroke-miterlimit:40.5;paint-order:markers stroke fill"
         id="rect2-2-3-0-5"
         width="45"
         height="45"
         x="1367.3478"
         y="1496.9926"
         inkscape:transform-center-x="-61.89591"
         inkscape:transform-center-y="12.894981" /><rect
         style="fill:#f57cd6;fill-opacity:1;fill-rule:evenodd;stroke-width:15.0009;stroke-linecap:square;stroke-linejoin:bevel;stroke-miterlimit:40.5;paint-order:markers stroke fill"
         id="rect2-2-0-3-8"
         width="45"
         height="45"
         x="1412.3478"
         y="1496.9926"
         inkscape:transform-center-x="-61.89591"
         inkscape:transform-center-y="12.894981" /><rect
         style="fill:#333ad6;fill-opacity:1;fill-rule:evenodd;stroke-width:15.0009;stroke-linecap:square;stroke-linejoin:bevel;stroke-miterlimit:40.5;paint-order:markers stroke fill"
         id="rect2-1-91-7"
         width="45"
         height="45"
         x="1277.3478"
         y="1541.9926" /><rect
         style="fill:#88e56a;fill-opacity:1;fill-rule:evenodd;stroke-width:15.0009;stroke-linecap:square;stroke-linejoin:bevel;stroke-miterlimit:40.5;paint-order:markers stroke fill"
         id="rect2-2-08-9-0"
         width="45"
         height="45"
         x="1322.3478"
         y="1541.9926"
         inkscape:transform-center-x="-61.89591"
         inkscape:transform-center-y="12.894981" /><rect
         style="fill:#f52474;fill-opacity:1;fill-rule:evenodd;stroke-width:15.0009;stroke-linecap:square;stroke-linejoin:bevel;stroke-miterlimit:40.5;paint-order:markers stroke fill"
         id="rect2-2-3-5-6-4"
         width="45"
         height="45"
         x="1367.3478"
         y="1541.9926"
         inkscape:transform-center-x="-61.89591"
         inkscape:transform-center-y="12.894981" /><rect
         style="fill:#537c69;fill-opacity:1;fill-rule:evenodd;stroke-width:15.0009;stroke-linecap:square;stroke-linejoin:bevel;stroke-miterlimit:40.5;paint-order:markers stroke fill"
         id="rect2-2-0-0-9-8"
         width="45"
         height="45"
         x="1412.3478"
         y="1541.9926"
         inkscape:transform-center-x="-61.89591"
         inkscape:transform-center-y="12.894981" /></g></g><rect
     style="opacity:1;fill:#ffedff;fill-rule:evenodd;stroke-width:15.0009;stroke-linecap:square;stroke-linejoin:bevel;stroke-miterlimit:40.5;paint-order:markers stroke fill;fill-opacity:1"
     id="rect3"
     width="230"
     height="230"
     x="44.474533"
     y="269.99997" /><text
     xml:space="preserve"
     style="font-size:44.7245px;line-height:1.25;font-family:'Arial Black';-inkscape-font-specification:'Arial Black, ';letter-spacing:0px;word-spacing:0px;stroke-width:1"
     x="159.24522"
     y="368.64322"
     id="text3"
     inkscape:transform-center-x="69.206463"
     inkscape:transform-center-y="60.555661"><tspan
       sodipodi:role="line"
       id="tspan3"
       x="159.24522"
       y="368.64322"
       style="font-size:44.7245px;text-align:center;text-anchor:middle;stroke-width:1">Logo</tspan><tspan
       sodipodi:role="line"
       x="159.24522"
       y="424.54883"
       style="font-size:44.7245px;text-align:center;text-anchor:middle;stroke-width:1"
       id="tspan4">Overlap</tspan></text></svg>
